<svg version="1.1" id="Layer_1" xmlns="http://www.w3.org/2000/svg" xmlns:xlink="http://www.w3.org/1999/xlink" x="0px" y="0px"
	 width="100%" viewBox="0 0 432 368" enable-background="new 0 0 432 368" xml:space="preserve">
<path fill="#000000" opacity="1.000000" stroke="none" 
	d="
M55.832241,160.920273 
	C57.922058,158.098389 58.262653,155.485992 57.904667,152.244049 
	C56.320641,137.898926 61.305107,126.075768 72.751587,117.198380 
	C74.917854,115.518311 75.839165,114.062614 74.684654,111.373566 
	C68.842674,97.766571 77.808853,79.161667 91.002190,73.043930 
	C94.845695,71.261711 96.242699,68.758446 96.835938,64.723434 
	C99.371216,47.479092 115.650665,34.031403 133.276031,34.950550 
	C139.298294,35.264606 142.785416,34.158310 145.617584,28.147778 
	C150.799179,17.151236 165.102859,10.332410 176.077820,12.279325 
	C191.057907,14.936734 201.129318,24.601198 203.078003,38.579571 
	C204.740356,50.504097 204.044907,62.533577 204.059509,74.516037 
	C204.147430,146.664703 204.131393,218.813492 204.142227,290.962250 
	C204.144089,303.315399 200.619385,314.183197 191.161743,322.742096 
	C171.077530,340.917694 140.339279,332.194855 130.731064,310.093353 
	C129.016724,306.149902 127.043716,304.250214 122.354057,304.100861 
	C105.281410,303.557281 89.838020,287.969818 88.813812,270.831696 
	C88.674973,268.508362 88.664429,266.160461 88.826912,263.840240 
	C89.041603,260.774475 88.083595,259.126617 84.871674,258.028259 
	C66.718307,251.820526 56.844673,236.986221 57.758499,217.844650 
	C57.790257,217.179504 57.636395,216.402237 57.923740,215.868011 
	C62.158485,207.994873 58.377357,202.007751 54.532742,195.048935 
	C48.459816,184.056854 49.123344,172.311966 55.832241,160.920273 
M169.786453,56.235538 
	C169.813034,53.729622 167.740692,52.552364 166.409805,50.907478 
	C162.760117,46.396717 163.039337,39.941792 167.039078,36.480270 
	C170.704803,33.307819 177.303650,33.508072 180.819565,36.898460 
	C185.201691,41.124165 185.247864,46.172771 180.949020,51.054932 
	C178.032898,54.366760 176.606262,62.938835 179.058029,66.398865 
	C183.077835,72.071770 188.428146,76.510857 194.726990,81.722496 
	C194.713181,66.679413 196.286911,52.665752 194.054535,38.928436 
	C192.087494,26.823885 181.270523,20.256939 169.124069,21.916910 
	C157.468002,23.509863 149.983215,32.687096 150.198090,44.988953 
	C150.314240,51.639931 153.490326,56.709286 158.205246,61.006828 
	C160.445221,63.048523 160.785248,65.305130 158.934113,67.611580 
	C156.856155,70.200653 154.664108,68.651405 152.851273,67.192238 
	C147.672180,63.023518 143.707962,57.871510 142.007065,51.379524 
	C140.015930,43.779766 140.181839,43.694359 132.322876,43.989300 
	C129.509384,44.094883 126.700577,44.149071 123.949821,45.117050 
	C108.702965,50.482395 101.065018,67.100868 107.021721,82.530266 
	C108.077995,85.266281 108.503937,87.364159 105.406151,88.685875 
	C102.118454,90.088608 100.055862,88.755104 98.705696,85.605263 
	C98.073097,84.129486 98.157860,82.290009 96.747437,81.190979 
	C85.065651,83.954559 80.057312,99.340759 82.990021,107.629799 
	C83.442375,108.908340 83.821266,110.777687 85.291573,110.440369 
	C90.443146,109.258484 96.231300,111.353134 100.779175,106.758408 
	C105.393219,102.096825 111.221573,102.242676 115.483543,106.417801 
	C119.669296,110.518265 119.463234,116.937523 114.994301,121.659027 
	C110.991325,125.888237 110.845840,132.056366 114.851326,136.184784 
	C120.071350,141.565048 125.501152,146.742432 130.695877,152.146332 
	C133.025696,154.569946 135.465576,155.825897 138.983597,155.796249 
	C144.444809,155.750229 149.242691,160.935104 149.126205,166.072906 
	C149.002823,171.515411 143.777878,175.739624 137.647614,175.353058 
	C131.969849,174.995010 127.583282,170.296951 128.318100,164.648148 
	C128.684937,161.828049 127.541534,160.296478 125.826782,158.612015 
	C120.359581,153.241379 115.040497,147.716187 109.474884,142.450821 
	C105.613602,138.797852 103.650688,134.785172 103.906807,129.242630 
	C104.301941,120.691505 99.288750,116.932907 90.788651,118.682762 
	C77.679443,121.381447 67.924164,132.026886 66.488121,145.200684 
	C65.266617,156.406311 73.312531,170.063202 85.163620,174.415985 
	C91.458717,176.728119 92.954231,180.209579 92.240623,185.965729 
	C92.097984,187.116272 92.183525,188.296158 92.178642,189.462555 
	C92.147591,196.882309 92.750717,197.319244 100.149727,196.813232 
	C102.843079,196.629044 104.238205,194.899475 105.962929,193.368423 
	C110.108978,189.687943 116.325394,189.795105 119.933197,193.538544 
	C123.967102,197.724060 123.980629,203.880585 119.964806,207.930878 
	C116.023956,211.905563 109.339706,212.229492 105.658241,207.961807 
	C103.007057,204.888504 100.097786,204.143631 96.426331,204.360458 
	C93.935913,204.507553 91.425659,204.290100 88.930176,204.387238 
	C85.551277,204.518753 84.000595,202.884506 83.976265,199.615662 
	C83.946510,195.616577 83.823662,191.613754 83.952843,187.619415 
	C84.044960,184.771118 83.008324,183.007355 80.383217,181.730560 
	C74.646339,178.940292 69.479218,175.330856 65.533646,170.175110 
	C64.842964,169.272583 63.969543,168.388046 62.584415,168.765198 
	C58.311337,175.461716 59.599758,189.456116 64.965858,195.025284 
	C65.835159,195.927490 66.712318,196.748215 67.962471,195.959900 
	C70.572685,194.314011 72.777351,194.803574 74.456116,197.228256 
	C76.342812,199.953247 74.333763,201.842239 72.792397,203.828766 
	C60.639854,219.491104 68.398842,243.580368 87.450920,249.460602 
	C90.631790,250.442368 93.200813,250.382889 94.961281,246.890961 
	C96.542084,243.755417 99.001923,241.237915 101.602760,238.843048 
	C103.840492,236.782547 105.632141,237.046570 107.573448,239.124802 
	C109.505867,241.193527 109.710136,243.139999 107.552223,245.179764 
	C106.464424,246.208038 105.427719,247.301392 104.458427,248.442230 
	C97.047379,257.164856 95.690269,267.146271 99.865837,277.425446 
	C103.869675,287.281860 111.445084,293.454742 122.329323,295.050446 
	C124.837273,295.418091 126.692703,295.401215 126.709961,292.175751 
	C126.767853,281.355560 132.112122,273.302307 139.920410,266.377228 
	C146.378387,260.649689 148.250092,250.414551 144.441360,241.516953 
	C139.576797,246.625946 134.892578,251.519669 130.245621,256.448517 
	C129.352570,257.395721 129.740082,258.579987 129.777832,259.756104 
	C129.987854,266.300262 125.873466,270.856781 119.770317,271.014374 
	C114.167267,271.158997 109.541458,266.762451 109.292755,261.056030 
	C109.056435,255.633911 114.232605,250.784012 120.514305,250.816467 
	C122.828934,250.828445 124.624054,250.369858 126.319901,248.665802 
	C137.471527,237.460220 149.271759,226.838287 159.728470,215.024094 
	C167.041534,206.761627 174.889893,203.358093 185.793076,204.400833 
	C194.688980,205.251587 195.396271,203.717926 195.008484,194.830765 
	C194.862961,191.495499 193.657471,190.027847 190.202606,190.105606 
	C183.373779,190.259308 176.537354,190.249939 169.707855,190.116043 
	C166.818573,190.059372 164.673187,190.996323 162.657272,193.067719 
	C155.918411,199.992020 148.210159,206.141678 142.379654,213.743469 
	C132.494339,226.631943 120.270119,231.851074 104.387268,229.217102 
	C101.007172,228.656555 98.130646,229.530075 95.509262,232.384109 
	C92.149750,236.041763 84.886353,235.345001 81.475960,231.700043 
	C77.758629,227.727036 77.886688,221.740265 81.775368,217.702896 
	C85.289841,214.054047 91.989815,213.293777 95.315590,217.078644 
	C98.440186,220.634537 101.910408,220.945526 105.988266,220.809753 
	C110.149689,220.671219 114.329285,220.596802 118.482178,220.829224 
	C122.086174,221.030945 124.774963,219.959915 127.279297,217.253738 
	C131.345642,212.859695 135.818054,208.840836 140.128998,204.673889 
	C144.735687,200.221024 149.353928,195.780136 153.967117,191.334015 
	C145.611420,190.169922 137.995453,190.134476 130.380096,190.188477 
	C127.587242,190.208282 125.275673,189.526871 123.199753,187.434601 
	C114.639397,178.806976 105.904884,170.352341 97.324463,161.744339 
	C94.981262,159.393616 92.606438,158.039215 89.049896,158.042709 
	C83.124527,158.048538 78.643837,152.984436 78.856720,147.346008 
	C79.073013,141.617340 82.994171,137.888306 88.882683,137.811264 
	C95.034531,137.730789 99.187157,141.658524 99.151733,148.103470 
	C99.134506,151.238831 100.180122,153.419052 102.354416,155.532013 
	C110.594070,163.539200 118.745796,171.638245 126.838745,179.793915 
	C128.568756,181.537338 130.531662,181.793655 132.750641,181.789917 
	C151.580856,181.758270 170.412125,181.644485 189.240631,181.819641 
	C193.717728,181.861298 195.029816,180.104095 194.991119,175.920593 
	C194.922165,168.466949 194.527527,167.489563 189.224167,167.363281 
	C182.395325,167.200653 175.560455,167.206009 168.729324,167.266785 
	C166.062576,167.290497 163.939072,166.513748 162.033585,164.589752 
	C150.426971,152.870392 138.770584,141.200119 127.086525,129.557907 
	C125.217590,127.695663 124.064903,125.653412 124.077667,122.962471 
	C124.118744,114.297775 124.023384,105.631279 124.175812,96.968910 
	C124.227577,94.027115 124.189919,90.550560 128.729080,90.770256 
	C132.805115,90.967514 132.810608,94.194527 132.877533,96.969276 
	C133.038239,103.630928 133.152634,110.307770 132.873169,116.961159 
	C132.677216,121.626778 134.005554,125.259361 137.387527,128.547653 
	C147.060974,137.953171 156.533173,147.565781 166.074158,157.107315 
	C167.545212,158.578461 169.121063,159.448029 171.363678,159.365128 
	C177.187698,159.149796 183.031082,158.937912 188.846878,159.187485 
	C193.390244,159.382477 195.027969,157.751175 194.984436,153.173264 
	C194.810074,134.844788 194.915222,116.513718 194.897049,98.183624 
	C194.895248,96.363274 195.196014,94.310738 193.796997,92.929390 
	C189.006226,88.199066 184.080124,83.605804 178.964859,78.730820 
	C176.805939,87.751137 177.665924,92.659500 182.158173,99.770844 
	C183.699158,102.210228 184.689407,104.866882 183.633270,107.831787 
	C182.186111,111.894394 179.660065,114.759712 175.125717,115.259026 
	C170.416092,115.777634 167.085297,113.700340 164.927597,109.603737 
	C162.768875,105.505180 163.775879,101.755493 166.664368,98.549164 
	C168.516617,96.493111 169.863174,94.585640 169.828186,91.591469 
	C169.693848,80.096359 169.807587,68.598358 169.786453,56.235538 
M172.749039,213.966431 
	C171.054932,215.562576 169.394821,217.196671 167.661346,218.748840 
	C154.153091,230.844208 153.466644,230.876465 154.443756,248.828629 
	C155.042847,259.835541 151.697037,267.625549 143.550369,274.834991 
	C136.171494,281.364990 133.647949,290.387634 136.507278,300.329498 
	C140.305145,313.534698 151.391373,322.733978 163.755280,322.932983 
	C179.251602,323.182404 189.355576,315.910858 193.974869,301.262817 
	C194.791885,298.672058 194.944977,296.039001 194.943985,293.373474 
	C194.934830,268.741547 194.938522,244.109558 194.865463,219.477814 
	C194.857559,216.812912 195.733307,213.174210 191.582367,212.810989 
	C185.511368,212.279755 179.356018,211.370316 172.749039,213.966431 
M91.273407,148.870560 
	C92.079430,146.034241 90.780304,144.685455 88.079666,145.007507 
	C86.296104,145.220184 85.784836,146.897903 86.340279,148.441010 
	C87.253784,150.978867 88.942879,151.080536 91.273407,148.870560 
M173.110672,41.316757 
	C171.525238,41.883278 170.490448,42.858528 171.189758,44.644009 
	C171.722321,46.003731 172.980209,46.533722 174.380447,46.512249 
	C175.712189,46.491825 176.531570,45.711536 176.650223,44.388039 
	C176.832413,42.356010 175.802444,41.330303 173.110672,41.316757 
M174.375336,103.204620 
	C171.946976,103.451683 170.531006,104.543961 171.751236,107.081406 
	C172.379135,108.387093 173.850311,108.877762 175.113220,107.916412 
	C176.998978,106.480934 177.622711,104.821831 174.375336,103.204620 
M111.192230,203.099823 
	C113.710136,204.293457 115.053589,203.041061 115.404266,200.730637 
	C115.639328,199.181915 114.396049,198.236404 112.892509,198.361313 
	C110.091171,198.594009 109.790756,200.329117 111.192230,203.099823 
M141.243927,166.711166 
	C141.982346,163.948227 140.548477,162.996323 138.135208,163.366226 
	C136.532928,163.611832 135.318832,164.834167 136.166183,166.542618 
	C137.261612,168.751328 139.013428,169.041962 141.243927,166.711166 
M91.444237,225.831848 
	C91.944160,223.149933 90.733597,222.015045 88.151688,222.441925 
	C86.833420,222.659866 86.058983,223.793320 86.486168,225.039490 
	C87.318672,227.468002 88.957680,227.988632 91.444237,225.831848 
M117.198563,261.350281 
	C117.906509,263.532074 119.249405,264.457428 121.197769,262.848694 
	C122.479889,261.790039 122.728722,260.098633 121.225105,259.027649 
	C119.291801,257.650604 117.839783,258.388275 117.198563,261.350281 
M105.729218,113.687820 
	C106.260429,116.231071 107.994835,116.300842 109.804825,115.384888 
	C110.985626,114.787346 111.099876,113.344910 110.254036,112.399124 
	C108.621048,110.573196 107.109253,111.187592 105.729218,113.687820 
z"/>
<path fill="#000000" opacity="1.000000" stroke="none" 
	d="
M220.490067,241.407928 
	C198.045761,202.134491 221.438919,153.074463 265.740814,144.445572 
	C301.858673,137.410706 338.021942,162.047684 343.268188,200.600388 
	C345.707550,218.526077 340.878418,234.499146 330.683563,249.143158 
	C329.472168,250.883194 326.224915,252.733246 328.362976,254.941208 
	C331.058716,257.725037 331.794037,263.491608 337.924225,262.017242 
	C342.390289,260.943085 345.015137,264.306458 347.554993,267.114044 
	C358.280518,278.970276 368.894592,290.927307 379.556396,302.841217 
	C380.778198,304.206512 382.083191,305.498444 383.282867,306.882233 
	C388.750763,313.189453 388.579529,322.412598 382.922272,327.683960 
	C376.370087,333.789215 366.776123,333.872925 360.979614,327.335815 
	C348.712860,313.501801 336.734711,299.412109 324.609192,285.452454 
	C322.279480,282.770386 321.350891,279.824219 321.816010,276.244232 
	C322.495087,271.017456 317.747894,268.979828 314.978149,266.013245 
	C312.963623,263.855591 310.763763,266.598145 308.831085,267.662811 
	C280.333099,283.362091 240.109634,275.727509 220.490067,241.407928 
M282.198578,261.757629 
	C302.648132,259.904694 317.140686,248.911743 325.730804,230.987488 
	C334.706970,212.257706 331.807404,193.775436 319.651398,177.239731 
	C300.828979,151.635727 263.652191,149.153290 241.059235,171.532867 
	C221.679016,190.730026 219.575302,219.366821 236.141220,240.955032 
	C247.490509,255.745102 262.536530,262.830597 282.198578,261.757629 
z"/>
<path fill="#000000" opacity="1.000000" stroke="none" 
	d="
M295.013428,45.809620 
	C289.719269,43.495777 284.526825,44.134571 279.386688,44.285694 
	C276.671387,44.365517 275.656586,46.184402 275.433838,48.571369 
	C274.757080,55.823601 270.939270,61.337666 265.701660,65.998451 
	C263.536804,67.924896 261.071198,70.799637 258.098267,67.511658 
	C255.396622,64.523727 257.511932,62.253052 259.888580,59.943813 
	C271.781860,48.387844 268.344604,29.366446 253.355362,23.195473 
	C239.571564,17.520773 223.807892,26.345396 222.610046,41.313934 
	C221.643082,53.397705 222.343704,65.615990 222.355911,77.774544 
	C222.356689,78.539101 222.804062,79.303207 223.044785,80.071053 
	C232.075348,77.088875 239.957108,64.788094 238.906845,55.882187 
	C238.662247,53.807961 237.412094,52.711617 236.155838,51.367878 
	C231.833023,46.744057 231.723557,41.182354 235.737366,37.074303 
	C239.314148,33.413528 246.347641,33.373844 250.369080,36.991764 
	C254.254562,40.487370 254.440140,47.100307 250.216095,51.310005 
	C247.689606,53.827927 247.012268,56.470337 247.054672,59.786812 
	C247.180359,69.615356 247.227615,79.447319 247.103485,89.275398 
	C247.057388,92.924744 247.653015,95.821823 250.573975,98.564728 
	C254.454895,102.209068 254.059570,108.304977 250.482758,112.095299 
	C246.920273,115.870445 240.790482,116.372360 236.838913,113.212479 
	C232.695267,109.899048 231.167206,103.450966 234.910233,99.931610 
	C239.430847,95.681122 238.956436,90.828400 239.000977,85.741394 
	C239.019455,83.631813 239.004044,81.521927 238.360397,79.133362 
	C233.025528,83.882957 227.311401,87.833054 223.249344,93.536263 
	C221.884750,95.452141 222.293762,97.720108 222.288544,99.849007 
	C222.240326,119.509171 222.125580,139.170624 222.309601,158.829086 
	C222.371857,165.480591 218.310364,169.619553 215.156906,174.654526 
	C212.460876,172.664536 213.073441,170.483139 213.071823,168.625107 
	C213.035858,127.140099 212.967102,85.654648 213.135071,44.170208 
	C213.196533,28.992474 223.974548,15.685583 237.791428,12.878804 
	C253.080582,9.772948 266.862793,16.980631 273.406769,31.782080 
	C274.688171,34.680435 275.914978,35.737556 279.319305,35.239250 
	C299.273407,32.318478 316.715942,44.782047 320.245697,64.511902 
	C320.988617,68.664688 322.612976,71.124397 326.450653,73.135292 
	C340.253326,80.367744 346.867401,95.834801 342.773865,110.802628 
	C341.963928,113.764137 342.077362,115.551117 344.710205,117.529663 
	C356.642426,126.496513 360.549622,138.868164 359.043030,153.258438 
	C358.803802,155.543335 359.008728,157.355270 360.292389,159.330765 
	C369.112366,172.904205 368.694000,188.124054 358.915344,201.175476 
	C356.750702,204.064621 356.422852,206.315277 357.624329,209.731201 
	C363.094727,225.284149 356.693115,243.903915 343.048218,252.983734 
	C340.580963,254.625534 337.995270,256.252319 334.512085,254.605942 
	C335.859131,249.125107 339.339081,245.087509 342.664734,241.024673 
	C349.391571,232.806717 352.101654,224.007172 349.542603,213.193649 
	C347.961212,206.511398 347.481812,199.533630 352.974945,193.080826 
	C359.199493,185.768799 358.692780,176.906189 354.863129,167.916306 
	C351.459137,169.252686 350.185181,172.472351 347.683868,174.185257 
	C345.789032,175.482849 344.380707,179.547760 341.300964,176.374451 
	C338.775787,173.772522 338.217865,170.883987 341.599609,167.853561 
	C347.877441,162.227936 350.855804,154.950989 350.667145,146.485107 
	C350.349884,132.250076 337.410736,118.982162 323.208160,118.262215 
	C317.387482,117.967155 313.196686,121.930885 313.025024,127.856926 
	C312.911041,131.791260 313.641754,135.813751 310.517883,139.213333 
	C306.420441,143.672379 304.382812,143.974289 299.136627,140.150177 
	C298.910614,138.351730 300.332520,137.563995 301.391541,136.556992 
	C306.335144,131.856415 306.472168,126.130249 301.759521,121.030350 
	C297.724335,116.663574 297.853119,110.130356 302.050903,106.248810 
	C306.280334,102.337990 311.901062,102.630577 316.326019,106.991898 
	C318.155579,108.795143 330.133392,111.410294 332.187164,110.389580 
	C334.073242,109.452209 334.337341,107.514488 334.701935,105.748489 
	C336.363159,97.702003 331.728943,87.142052 324.739319,82.666389 
	C321.873383,80.831230 319.900757,80.842087 318.816803,84.590790 
	C317.836304,87.981728 316.124695,90.508423 311.959290,88.448814 
	C309.712280,87.337784 308.914551,86.052818 309.979462,83.297134 
	C315.844025,68.121567 310.013641,53.480858 295.013428,45.809620 
M244.654572,41.842133 
	C242.289932,40.695431 240.718658,41.340092 240.481613,44.010170 
	C240.342529,45.576679 241.580185,46.547195 243.019135,46.464088 
	C245.790527,46.304020 246.278183,44.667202 244.654572,41.842133 
M240.385300,105.687759 
	C241.148148,108.568840 242.989029,108.392914 244.874023,107.034531 
	C246.125015,106.133041 246.153503,104.573402 245.001740,103.565735 
	C242.872635,101.702965 241.419022,102.780983 240.385300,105.687759 
M308.599548,116.335083 
	C311.122650,116.075005 312.204987,114.726837 311.115997,112.364342 
	C310.488770,111.003555 308.931671,110.738792 307.734528,111.579765 
	C305.591949,113.084915 305.669769,114.729759 308.599548,116.335083 
z"/>
<path fill="#000000" opacity="1.000000" stroke="none" 
	d="
M212.941681,280.999268 
	C212.934586,268.273132 212.934586,256.046783 212.934586,243.820419 
	C213.430267,243.700577 213.925949,243.580719 214.421631,243.460861 
	C218.063690,246.486115 220.812027,250.416382 222.172897,254.889526 
	C223.011368,257.645569 224.331985,259.608368 226.262527,261.459778 
	C230.712204,265.726990 235.104614,270.054199 239.574677,274.299744 
	C242.146667,276.742523 244.652863,279.142151 244.614853,283.094330 
	C244.598450,284.802246 246.027161,285.570618 247.179947,286.551819 
	C252.043396,290.691376 252.641953,297.029968 248.687042,301.601959 
	C245.171951,305.665527 238.944565,306.115570 234.735168,302.610291 
	C230.147415,298.789948 229.426971,291.914215 233.892227,287.552277 
	C237.151154,284.368713 236.349594,282.250610 233.638702,279.746063 
	C230.487305,276.834534 227.318176,273.942200 223.060318,270.035522 
	C223.217239,278.628387 222.241852,285.889099 222.603592,293.345245 
	C223.056671,302.683990 225.796280,310.581329 233.184921,316.601837 
	C242.897675,324.516052 257.484955,325.271729 267.676971,318.325439 
	C279.111145,310.532532 284.264832,297.050201 280.487518,284.807465 
	C280.200531,283.877350 279.900116,282.951355 279.618591,282.063416 
	C286.548401,278.744110 288.803101,279.998383 290.133667,287.326447 
	C290.615051,289.977783 288.813446,293.752319 291.906616,295.079071 
	C295.167633,296.477844 298.724915,294.712372 301.959961,293.356232 
	C305.825775,291.735626 309.477844,289.815643 312.281281,286.532745 
	C313.756317,284.805450 315.397919,282.403839 317.840057,285.365417 
	C319.735901,287.664459 321.941986,289.933929 318.746796,293.083740 
	C311.936371,299.797516 303.882629,303.855103 294.329407,304.093201 
	C290.320496,304.193146 288.561584,305.667206 286.998138,309.189789 
	C280.413879,324.024750 268.338196,331.902649 252.572784,332.568878 
	C238.540253,333.161865 227.047180,326.660553 219.305908,314.746674 
	C215.481934,308.861511 213.162613,302.178284 212.976791,294.998444 
	C212.860367,290.501434 212.951035,285.999023 212.941681,280.999268 
M240.057938,297.496979 
	C242.567261,297.924042 243.944763,296.933441 243.529633,294.335083 
	C243.296005,292.872803 242.038818,291.969879 240.610840,292.608887 
	C238.523773,293.542816 237.528091,295.073120 240.057938,297.496979 
z"/>
<path fill="#000000" opacity="1.000000" stroke="none" 
	d="
M278.848328,67.760208 
	C278.865784,62.316036 281.042206,58.443062 285.911682,57.064346 
	C289.850830,55.949020 293.882599,56.363831 296.726929,60.168331 
	C299.098236,63.340122 300.093536,66.675163 298.285309,70.421509 
	C296.361816,74.406715 293.050842,76.345581 288.706055,76.531708 
	C281.889771,76.823730 271.639893,86.888809 272.604614,93.610481 
	C274.537506,107.078178 270.511841,117.567398 259.461212,125.504120 
	C257.323364,127.039566 255.670700,129.241806 253.747482,131.087753 
	C252.229248,132.544998 251.515305,133.996796 251.828568,136.349274 
	C252.560883,141.849030 247.112305,146.923767 240.704437,147.147278 
	C236.428543,147.296417 232.012146,142.721237 231.822586,137.946136 
	C231.606689,132.507492 236.779556,126.417053 241.954514,127.111427 
	C245.794540,127.626694 247.836823,125.886574 250.136688,123.715202 
	C264.367157,110.279747 264.524780,110.282959 264.431488,90.909798 
	C264.410431,86.535583 266.458527,83.866409 269.004181,80.908752 
	C272.501892,76.844933 277.910828,74.208084 278.848328,67.760208 
M241.605652,134.492966 
	C238.752914,135.505966 238.701523,137.350266 240.322388,139.427734 
	C241.299118,140.679657 242.725876,140.659134 243.701736,139.422836 
	C245.420975,137.244705 244.991913,135.497757 241.605652,134.492966 
M287.365234,68.248718 
	C289.379181,69.164825 291.043549,68.941139 291.457214,66.491875 
	C291.682343,65.158867 290.597961,64.304688 289.301392,64.309242 
	C287.008057,64.317299 285.818085,65.300735 287.365234,68.248718 
z"/>
<path fill="#000000" opacity="1.000000" stroke="none" 
	d="
M292.983643,106.016525 
	C292.987701,109.005486 292.614166,111.568802 293.065094,113.977791 
	C294.879456,123.670586 290.470459,130.479034 283.419586,136.320297 
	C279.995636,139.156845 276.502441,138.358810 272.466583,137.492294 
	C273.461853,134.048660 275.896606,132.136261 278.111237,130.400665 
	C283.459381,126.209312 285.381287,121.016129 284.837036,114.306541 
	C284.341431,108.196358 284.662018,102.019135 284.644531,95.871399 
	C284.636963,93.202477 284.967651,90.824257 288.517395,90.730789 
	C291.940216,90.640671 292.764221,92.874985 292.897522,95.554321 
	C293.062469,98.869438 292.967651,102.197479 292.983643,106.016525 
z"/>
<path fill="#000000" opacity="1.000000" stroke="none" 
	d="
M320.211548,141.287506 
	C326.167664,136.562653 332.786224,136.871124 336.306274,141.733231 
	C339.706879,146.430405 338.458923,152.796844 333.535217,156.169586 
	C330.913513,157.965454 328.384338,158.336029 325.770325,156.172226 
	C324.489075,155.111664 323.063599,154.225067 321.785522,153.161072 
	C317.114075,149.272079 316.810181,147.238602 320.211548,141.287506 
M325.517670,148.199936 
	C326.517151,150.438583 328.038849,151.402130 330.021851,149.456253 
	C331.380188,148.123322 331.321167,146.258865 329.628571,145.236435 
	C327.228546,143.786652 326.038635,145.282288 325.517670,148.199936 
z"/>
<path fill="#000000" opacity="1.000000" stroke="none" 
	d="
M252.664673,277.808411 
	C260.921997,276.246948 265.311462,279.765442 265.300079,287.523224 
	C265.292786,292.503662 265.245789,297.484406 265.286316,302.464417 
	C265.308563,305.197113 264.276062,307.092926 261.370087,307.136536 
	C258.571655,307.178497 257.151611,305.402374 256.990143,302.723907 
	C256.840485,300.241333 256.717438,297.734467 256.889435,295.259644 
	C257.320129,289.062622 257.214966,283.055084 252.664673,277.808411 
z"/>
<path fill="#000000" opacity="1.000000" stroke="none" 
	d="
M169.558090,145.805710 
	C166.089325,143.373840 164.572128,140.306198 165.127319,136.538315 
	C165.528793,133.813873 164.225113,132.140533 162.527954,130.435165 
	C157.591507,125.474800 152.757889,120.410370 147.755005,115.518616 
	C145.581131,113.393028 144.393494,111.106422 144.648254,108.005531 
	C144.838699,105.687592 144.386780,103.293213 144.750061,101.017342 
	C146.134369,92.345016 143.420120,85.546631 136.448303,80.112411 
	C133.774399,78.028229 131.797119,75.994194 127.799545,76.577789 
	C123.337769,77.229141 118.219566,71.774513 117.847763,67.079224 
	C117.487213,62.526123 121.258507,57.563107 125.635323,56.830791 
	C131.515030,55.847019 137.799423,59.038383 137.692535,64.413155 
	C137.530838,72.545464 143.212646,76.153267 147.893570,80.532318 
	C151.464905,83.873337 153.680206,87.285637 153.030975,92.252884 
	C152.902542,93.235588 153.209763,94.293526 152.994385,95.243851 
	C149.511993,110.609192 161.016937,117.864525 169.876816,126.554245 
	C170.836212,127.495232 171.937714,127.271721 173.136398,127.158028 
	C178.159515,126.681541 181.868576,128.838440 184.174805,133.241348 
	C186.183319,137.075867 185.513718,140.858658 182.695862,143.908279 
	C179.111130,147.787872 174.640045,148.213318 169.558090,145.805710 
M176.722687,134.948486 
	C173.948257,133.817078 172.583466,135.101318 172.424820,137.745026 
	C172.335938,139.226501 173.545975,140.388336 174.959473,140.186615 
	C177.821091,139.778214 178.163605,137.821350 176.722687,134.948486 
M129.992157,68.146729 
	C131.218155,66.156387 130.976196,64.600464 128.456680,64.232239 
	C126.769402,63.985649 125.415192,64.949844 125.614372,66.760216 
	C125.878235,69.158379 127.401398,69.683838 129.992157,68.146729 
z"/>
<path fill="#000000" opacity="1.000000" stroke="none" 
	d="
M170.157166,275.636902 
	C166.587433,277.841980 164.067612,280.949707 161.351990,283.865875 
	C159.509003,285.844940 157.474182,287.147461 154.935028,284.781281 
	C152.298233,282.324188 153.073776,280.244904 155.412064,278.074524 
	C159.678436,274.114624 163.936035,270.135345 168.007751,265.978485 
	C172.033356,261.868652 171.947372,255.136169 168.075043,250.788757 
	C163.735733,245.917053 163.729294,239.592331 168.059586,235.589874 
	C171.905228,232.035355 178.325836,232.200577 182.141357,235.952255 
	C186.442276,240.181152 186.315964,246.265930 181.503937,250.994232 
	C179.782181,252.686066 179.108231,254.391159 179.124496,256.690399 
	C179.182220,264.845337 179.174362,273.001282 179.114578,281.156281 
	C179.096558,283.614349 179.776352,285.459564 181.680511,287.270966 
	C186.231995,291.600647 186.176590,297.597595 181.949081,301.886810 
	C178.254883,305.634918 172.057053,306.067047 168.327866,302.836548 
	C164.210907,299.270142 163.266388,292.007538 167.321304,287.994080 
	C171.117401,284.236755 171.090973,280.240967 170.157166,275.636902 
M173.374741,292.623688 
	C171.768326,293.699585 171.114716,295.001770 172.546463,296.666412 
	C173.371414,297.625549 174.459229,297.910095 175.638962,297.371582 
	C176.743088,296.867584 177.600845,296.028412 177.491348,294.749481 
	C177.309814,292.629395 175.872116,292.135071 173.374741,292.623688 
M175.921143,245.518967 
	C178.221130,244.069229 178.131012,242.452011 176.035721,240.998672 
	C174.785706,240.131622 173.306274,240.580429 172.704010,241.855042 
	C171.563629,244.268524 172.741516,245.497192 175.921143,245.518967 
z"/>
<path fill="#000000" opacity="1.000000" stroke="none" 
	d="
M256.750885,181.291229 
	C256.425354,175.318390 259.767334,172.564163 264.436951,171.185455 
	C271.942108,168.969528 279.572144,168.957718 287.113556,171.024979 
	C292.968842,172.630020 295.224304,175.807800 295.259552,181.912598 
	C295.290344,187.242462 295.175598,192.574432 295.287231,197.902100 
	C295.360931,201.418549 293.877045,203.202682 290.325256,203.276382 
	C284.508087,203.397079 279.512054,206.703110 273.487244,206.965820 
	C274.936646,209.720627 277.050415,208.789902 278.694092,209.169525 
	C280.419067,209.567902 281.294006,210.458817 281.241241,212.270020 
	C281.189728,214.037064 280.415985,215.152451 278.595947,215.243896 
	C276.435516,215.352478 274.268982,215.366531 272.104980,215.371399 
	C269.229340,215.377869 266.657532,216.343826 265.389801,218.916031 
	C263.718536,222.307098 261.009308,223.085144 257.640869,223.248520 
	C252.471176,223.499222 247.377213,223.179108 242.201859,222.106934 
	C244.627747,224.682816 247.716202,225.671936 251.116898,225.573593 
	C254.104340,225.487198 257.080292,225.026230 260.063202,224.751114 
	C261.963226,224.575867 264.259857,223.576508 264.892639,226.568832 
	C265.523987,229.554260 263.675598,230.887894 261.145203,231.434036 
	C256.371094,232.464417 251.573425,232.387329 246.769043,231.505920 
	C245.026047,231.186157 243.378815,230.100388 240.679993,230.910797 
	C249.055328,237.561035 257.961914,233.255707 266.679993,234.031799 
	C267.029114,230.045624 267.391937,226.280502 267.681519,222.509750 
	C268.136230,216.588120 272.738159,218.492645 276.025391,218.163055 
	C279.383179,217.826385 281.301453,219.169785 281.325745,222.985489 
	C281.349884,226.767517 280.452087,230.742752 282.156708,234.513382 
	C285.291962,233.593094 284.583557,231.477661 284.604919,229.799332 
	C284.678955,223.977539 284.628448,218.154312 284.656250,212.331757 
	C284.684814,206.344666 285.180481,205.872498 291.260254,205.827591 
	C297.456604,205.781845 298.047058,206.290466 298.103821,212.089233 
	C298.160889,217.918427 298.112762,223.748642 298.174591,229.577744 
	C298.192871,231.304077 297.738251,233.255402 299.560883,234.497391 
	C302.635468,233.675446 301.693298,231.287460 301.703278,229.520905 
	C301.773743,217.028992 301.701691,204.536392 301.736084,192.044159 
	C301.752106,186.217300 302.422546,185.948685 309.114349,185.682343 
	C313.985382,185.488480 315.473206,187.389740 315.377258,192.112259 
	C315.126953,204.433044 315.293274,216.762222 315.285461,229.088058 
	C315.283905,231.570206 315.152496,233.758972 317.858154,235.521194 
	C320.431702,237.197357 319.384949,240.188934 316.252014,240.835724 
	C314.967163,241.100983 313.598969,241.001556 312.268646,241.002121 
	C292.947998,241.010406 273.627258,241.037857 254.306824,240.973709 
	C251.489670,240.964371 248.642395,240.691101 245.863525,240.219177 
	C237.313187,238.767075 234.662827,235.428772 234.710098,226.709076 
	C234.745316,220.213654 234.636169,213.717484 234.665894,207.221985 
	C234.694412,200.992508 236.412003,198.422012 242.396225,196.686890 
	C245.718628,195.723572 249.247482,195.274521 252.712189,195.059570 
	C255.710434,194.873581 256.878204,193.672226 256.757263,190.742630 
	C256.633698,187.750000 256.740570,184.747849 256.750885,181.291229 
M271.421967,175.779358 
	C269.042816,176.567657 266.117493,176.255203 264.528107,178.904663 
	C270.062897,183.426346 283.756226,183.229187 287.393219,178.566742 
	C282.791260,175.083069 277.557800,175.123322 271.421967,175.779358 
M249.172226,207.666519 
	C254.718781,208.018127 260.323151,208.663956 265.237671,204.768402 
	C259.461700,199.783585 246.395508,199.899933 242.089249,204.880096 
	C243.779175,206.720322 246.217484,206.770370 249.172226,207.666519 
M265.559174,214.241364 
	C265.674530,213.951706 265.929626,213.620880 265.860352,213.385590 
	C265.806366,213.202164 265.321899,212.994308 265.074677,213.040939 
	C257.400543,214.488037 249.720169,215.009415 241.989227,213.465485 
	C249.480438,217.602188 257.215668,216.985703 265.559174,214.241364 
M271.102722,190.787384 
	C276.827759,191.065994 282.637329,191.810822 287.648376,188.111481 
	C283.861481,188.084824 280.182190,188.777527 276.470856,189.093246 
	C272.752380,189.409576 269.064209,187.522644 264.454926,188.552536 
	C265.944519,189.269150 266.651886,189.692062 267.414368,189.955063 
	C268.342896,190.275345 269.317841,190.461029 271.102722,190.787384 
M272.368652,197.866364 
	C271.140900,197.753555 269.934814,196.829971 268.634155,197.736542 
	C274.206696,201.618210 284.762360,200.767029 287.863800,196.098434 
	C282.900116,196.822342 278.152161,198.493561 272.368652,197.866364 
z"/>
</svg>